<?xml version="1.0"?>
<svg xmlns="http://www.w3.org/2000/svg" xmlns:xlink="http://www.w3.org/1999/xlink" xmlns:svgjs="http://svgjs.com/svgjs" version="1.1" width="512" height="512" x="0" y="0" viewBox="0 0 512 512" style="enable-background:new 0 0 512 512" xml:space="preserve" class=""><g transform="matrix(1.04,0,0,1.04,-10.240000000000009,-10.239999847412037)"><path xmlns="http://www.w3.org/2000/svg" d="m493.2334 273.94922-21.2334-18.36401v-48.96143a24 24 0 1 0 -16 0v35.12353l-32-27.67553v-49.54178l36.11621-21.66968a8.00153 8.00153 0 0 0 3.88379-6.86032v-25.37622a24 24 0 1 0 -16 0v20.84692l-24 14.39942v-75.24634a24 24 0 1 0 -16 0v129.61011l-24-20.75684v-52.85327a24 24 0 1 0 -16 0v39.01538l-32-27.67554v-47.29662l15.24561-20.32763a24.03747 24.03747 0 1 0 -12.11622-10.51221l-17.52978 23.373a8.00115 8.00115 0 0 0 -1.59961 4.79984v36.12573l-16-13.83789v-39.66406a24 24 0 1 0 -16 0v25.82642l-90.7666-78.501a7.99838 7.99838 0 0 0 -5.2334-1.9492h-152a24.0275 24.0275 0 0 0 -24 24v432a24.0275 24.0275 0 0 0 24 24h432a24.0275 24.0275 0 0 0 24-24v-192a7.99981 7.99981 0 0 0 -2.7666-6.05078zm-29.2334-97.94922a8 8 0 1 1 -8 8 8.00917 8.00917 0 0 1 8-8zm-8-96a8 8 0 1 1 -8 8 8.00917 8.00917 0 0 1 8-8zm-40-40a8 8 0 1 1 -8 8 8.00917 8.00917 0 0 1 8-8zm-40 56a8 8 0 1 1 -8 8 8.00917 8.00917 0 0 1 8-8zm-16-56a8 8 0 1 1 -8 8 8.00917 8.00917 0 0 1 8-8zm-64 0a8 8 0 1 1 -8 8 8.00917 8.00917 0 0 1 8-8zm-256-8h149.02051l37 32h-194.02051v-24a8.00917 8.00917 0 0 1 8-8zm440 440a8.00917 8.00917 0 0 1 -8 8h-432a8.00917 8.00917 0 0 1 -8-8v-392h212.52051l235.47949 203.6582z" fill="rgba(255, 255, 255, 0.1)" data-original="rgba(255, 255, 255, 0.1)" style="" class=""/><circle xmlns="http://www.w3.org/2000/svg" cx="48" cy="48" r="8" fill="rgba(255, 255, 255, 0.1)" data-original="rgba(255, 255, 255, 0.1)" style="" class=""/><circle xmlns="http://www.w3.org/2000/svg" cx="72" cy="48" r="8" fill="rgba(255, 255, 255, 0.1)" data-original="rgba(255, 255, 255, 0.1)" style="" class=""/><circle xmlns="http://www.w3.org/2000/svg" cx="96" cy="48" r="8" fill="rgba(255, 255, 255, 0.1)" data-original="rgba(255, 255, 255, 0.1)" style="" class=""/><path xmlns="http://www.w3.org/2000/svg" d="m288 376a8.00229 8.00229 0 0 0 3.2002 6.40039l32 24 9.5996-12.80078-23.4668-17.59961 23.46679-17.59961-9.5996-12.80078-32 24a8.00229 8.00229 0 0 0 -3.20019 6.40039z" fill="rgba(255, 255, 255, 0.1)" data-original="rgba(255, 255, 255, 0.1)" style="" class=""/><path xmlns="http://www.w3.org/2000/svg" d="m412.7998 406.40039 32-24a8.00048 8.00048 0 0 0 0-12.80078l-32-24-9.5996 12.80078 23.4668 17.59961-23.4668 17.59961z" fill="rgba(255, 255, 255, 0.1)" data-original="rgba(255, 255, 255, 0.1)" style="" class=""/><path xmlns="http://www.w3.org/2000/svg" d="m310.729 372h114.543v16h-114.543z" transform="matrix(.419 -.908 .908 .419 -131.239 554.883)" fill="rgba(255, 255, 255, 0.1)" data-original="rgba(255, 255, 255, 0.1)" style="" class=""/><path xmlns="http://www.w3.org/2000/svg" d="m56 104h16v16h-16z" fill="rgba(255, 255, 255, 0.1)" data-original="rgba(255, 255, 255, 0.1)" style="" class=""/><path xmlns="http://www.w3.org/2000/svg" d="m88 104h40v16h-40z" fill="rgba(255, 255, 255, 0.1)" data-original="rgba(255, 255, 255, 0.1)" style="" class=""/><path xmlns="http://www.w3.org/2000/svg" d="m56 136h16v16h-16z" fill="rgba(255, 255, 255, 0.1)" data-original="rgba(255, 255, 255, 0.1)" style="" class=""/><path xmlns="http://www.w3.org/2000/svg" d="m104 136h40v16h-40z" fill="rgba(255, 255, 255, 0.1)" data-original="rgba(255, 255, 255, 0.1)" style="" class=""/><path xmlns="http://www.w3.org/2000/svg" d="m160 136h16v16h-16z" fill="rgba(255, 255, 255, 0.1)" data-original="rgba(255, 255, 255, 0.1)" style="" class=""/><path xmlns="http://www.w3.org/2000/svg" d="m128 168h56v16h-56z" fill="rgba(255, 255, 255, 0.1)" data-original="rgba(255, 255, 255, 0.1)" style="" class=""/><path xmlns="http://www.w3.org/2000/svg" d="m56 280h16v16h-16z" fill="rgba(255, 255, 255, 0.1)" data-original="rgba(255, 255, 255, 0.1)" style="" class=""/><path xmlns="http://www.w3.org/2000/svg" d="m88 280h40v16h-40z" fill="rgba(255, 255, 255, 0.1)" data-original="rgba(255, 255, 255, 0.1)" style="" class=""/><path xmlns="http://www.w3.org/2000/svg" d="m56 312h16v16h-16z" fill="rgba(255, 255, 255, 0.1)" data-original="rgba(255, 255, 255, 0.1)" style="" class=""/><path xmlns="http://www.w3.org/2000/svg" d="m104 312h96v16h-96z" fill="rgba(255, 255, 255, 0.1)" data-original="rgba(255, 255, 255, 0.1)" style="" class=""/><path xmlns="http://www.w3.org/2000/svg" d="m216 312h16v16h-16z" fill="rgba(255, 255, 255, 0.1)" data-original="rgba(255, 255, 255, 0.1)" style="" class=""/><path xmlns="http://www.w3.org/2000/svg" d="m176 344h80v16h-80z" fill="rgba(255, 255, 255, 0.1)" data-original="rgba(255, 255, 255, 0.1)" style="" class=""/><path xmlns="http://www.w3.org/2000/svg" d="m128 344h32v16h-32z" fill="rgba(255, 255, 255, 0.1)" data-original="rgba(255, 255, 255, 0.1)" style="" class=""/><path xmlns="http://www.w3.org/2000/svg" d="m144 232h104v16h-104z" fill="rgba(255, 255, 255, 0.1)" data-original="rgba(255, 255, 255, 0.1)" style="" class=""/><path xmlns="http://www.w3.org/2000/svg" d="m128 200h72v16h-72z" fill="rgba(255, 255, 255, 0.1)" data-original="rgba(255, 255, 255, 0.1)" style="" class=""/><path xmlns="http://www.w3.org/2000/svg" d="m96 200h16v16h-16z" fill="rgba(255, 255, 255, 0.1)" data-original="rgba(255, 255, 255, 0.1)" style="" class=""/><path xmlns="http://www.w3.org/2000/svg" d="m264 232h56v16h-56z" fill="rgba(255, 255, 255, 0.1)" data-original="rgba(255, 255, 255, 0.1)" style="" class=""/><path xmlns="http://www.w3.org/2000/svg" d="m120 376h80v16h-80z" fill="rgba(255, 255, 255, 0.1)" data-original="rgba(255, 255, 255, 0.1)" style="" class=""/><path xmlns="http://www.w3.org/2000/svg" d="m96 408h48v16h-48z" fill="rgba(255, 255, 255, 0.1)" data-original="rgba(255, 255, 255, 0.1)" style="" class=""/><path xmlns="http://www.w3.org/2000/svg" d="m160 408h24v16h-24z" fill="rgba(255, 255, 255, 0.1)" data-original="rgba(255, 255, 255, 0.1)" style="" class=""/><path xmlns="http://www.w3.org/2000/svg" d="m152 440h80v16h-80z" fill="rgba(255, 255, 255, 0.1)" data-original="rgba(255, 255, 255, 0.1)" style="" class=""/></g></svg>
